<!-- Generator: Adobe Illustrator 21.0.2, SVG Export Plug-In  -->
<svg version="1.1"
	 xmlns="http://www.w3.org/2000/svg" xmlns:xlink="http://www.w3.org/1999/xlink" xmlns:a="http://ns.adobe.com/AdobeSVGViewerExtensions/3.0/"
	 x="0px" y="0px" width="31.1px" height="31.1px" viewBox="0 0 31.1 31.1" style="enable-background:new 0 0 31.1 31.1;"
	 xml:space="preserve">
<style type="text/css">
	.st0{fill:#9A9899;}
</style>
<defs>
</defs>
<g>
	<polygon class="st0" points="18.7,6.2 24.9,6.2 24.9,0 18.7,0 12.5,0 6.2,0 6.2,6.2 12.5,6.2 	"/>
	<polygon class="st0" points="12.5,24.9 6.2,24.9 6.2,31.1 12.5,31.1 18.7,31.1 24.9,31.1 24.9,24.9 18.7,24.9 	"/>
	<polygon class="st0" points="6.2,12.5 6.2,6.2 0,6.2 0,12.5 0,18.7 0,24.9 6.2,24.9 6.2,18.7 	"/>
	<polygon class="st0" points="24.9,6.2 24.9,12.5 24.9,18.7 24.9,24.9 31.1,24.9 31.1,18.7 31.1,12.5 31.1,6.2 	"/>
</g>
</svg>
