<!-- Generator: Adobe Illustrator 21.0.2, SVG Export Plug-In  -->
<svg version="1.1"
	 xmlns="http://www.w3.org/2000/svg" xmlns:xlink="http://www.w3.org/1999/xlink" xmlns:a="http://ns.adobe.com/AdobeSVGViewerExtensions/3.0/"
	 x="0px" y="0px" width="550.2px" height="490.5px" viewBox="0 0 550.2 490.5" style="enable-background:new 0 0 550.2 490.5;"
	 xml:space="preserve">
<style type="text/css">
	.st0{fill:#FFFFFF;}
	.st1{fill:#009DD7;}
	.st2{fill:#EC1F27;}
	.st3{fill:#252122;}
	.st4{fill:#FCF3B1;}
	.st5{fill:#FCFDF8;}
	.st6{fill:#FECE08;}
	.st7{fill:#E47225;}
	.st8{fill:#F26928;}
	.st9{fill:#FFFFFF;animation:flash .5s linear 5}
  @keyframes flash {
  0%,19.99% {
  fill: #FFFFFF;
  }
  20%,39.99% {
  fill: #FF0000;
  }
  40%,59.99% {
  fill:#0000FF;
  }
  60%,79.99%{
  fill: #FF0000;
  }
  80%, 100% {
  fill: #0000FF;
  }
  }
</style>
<defs>
</defs>
<g>
	<g>
		<g>
			<g>
				<g>
					<polygon class="st0" points="500.6,253.4 473,240.4 473,253.4 442.6,253.4 410.7,238.4 410.7,115.6 484.6,115.6 516.5,130.6
						516.5,138.3 531,145.1 531,195.4 516.5,195.4 516.5,210.8 531,217.6 531,253.4 					"/>
				</g>
				<g>
					<polygon class="st0" points="152.6,253.4 120.7,238.4 120.7,230.7 106.2,223.9 106.2,209.9 81.5,209.9 81.5,253.4 51.1,253.4
						19.2,238.4 19.2,115.6 93.1,115.6 120.7,128.6 120.7,115.6 180.1,115.6 212,130.6 212,138.3 226.5,145.1 226.5,238.9
						212,238.9 212,253.4 					"/>
				</g>
				<g>
					<polygon class="st0" points="210.6,383.9 178.7,368.9 178.7,246.1 252.6,246.1 284.5,261.1 284.5,268.8 299,275.6 299,325.9
						284.5,325.9 284.5,340.4 241,340.4 241,383.9 					"/>
				</g>
				<g>
					<polygon class="st0" points="123.6,383.9 91.7,368.9 91.7,361.2 77.2,354.4 77.2,246.1 107.6,246.1 135.2,259.1 135.2,246.1
						165.6,246.1 197.5,261.1 197.5,369.4 183,369.4 183,383.9 					"/>
				</g>
				<g>
					<polygon class="st0" points="297.6,253.4 270,240.4 270,253.4 239.6,253.4 207.7,238.4 207.7,115.6 238.1,115.6 265.7,128.6
						265.7,115.6 296.1,115.6 328,130.6 328,253.4 					"/>
				</g>
				<g>
					<polygon class="st0" points="341.1,253.4 309.2,238.4 309.2,115.6 397.6,115.6 429.5,130.6 429.5,166.4 398.5,166.4 415,174.1
						415,209.9 413,209.9 429.5,217.6 429.5,253.4 					"/>
				</g>
			</g>
		</g>
		<g>
			<polygon points="148.2,346.1 126.5,353.4 126.5,341.9 126.5,327.4 126.5,312.9 126.5,298.4 126.5,283.9 126.5,269.4 104.7,259.1
				104.7,340.4 90.2,346.1 112,356.4 117.5,356.4 104.7,360.6 126.5,370.9 141,370.9 155.5,370.9 170,370.9 170,356.4 184.5,356.4
				184.5,341.9 184.5,327.4 184.5,312.9 184.5,298.4 184.5,283.9 184.5,269.4 162.7,259.1 			"/>
			<path d="M503.5,146.5v-7.7l-21.8-10.3l-10.3,10.3H460h-14.5l-10.9-1.5l-10.9,92.8l21.8,10.3H460v-14.5v-14.5v-6.8l14.5,6.8
				l-7.3,4.3l21.8,10.3l-7.3,4.3l21.8,10.3H518v-14.5l-14.5-6.8v-7.7l-14.5-6.8v-7.7h14.5v-14.5H518v-14.5v-14.5L503.5,146.5z
				 M481.7,172.1v10.3h-7.3H460v-14.5v-14.5h14.5H489h2.1L481.7,172.1z"/>
			<polygon points="390.9,138.9 387.5,138.9 373,138.9 358.5,138.9 344,138.9 344,140.9 327.2,135.9 322.2,230.1 344,240.4
				358.5,240.4 373,240.4 387.5,240.4 402,240.4 416.5,240.4 416.5,225.9 394.7,215.6 384.5,225.9 373,225.9 358.5,225.9
				358.5,211.4 358.5,196.9 373,196.9 387.5,196.9 402,196.9 402,182.4 380.2,172.1 373,182.4 358.5,182.4 358.5,167.9 358.5,153.4
				373,153.4 387.5,153.4 402,153.4 416.5,153.4 416.5,138.9 394.7,128.6 			"/>
			<polygon points="286,211.4 271.5,214.2 271.5,211.4 266.6,211.4 271.5,204.1 271.5,211.4 286,211.4 286,196.9 286,182.4
				264.2,172.1 257,201.1 257,196.9 257,182.4 257,167.9 257,153.4 257,138.9 235.2,128.6 220.7,230.1 242.5,240.4 257,240.4
				257,225.9 271.5,225.9 271.5,219 286,225.9 278.7,230.1 300.5,240.4 315,240.4 315,225.9 315,211.4 315,196.9 315,182.4
				315,167.9 315,153.4 315,138.9 293.2,128.6 			"/>
			<path d="M199,225.9h14.5v-14.5v-14.5v-14.5v-14.5v-14.5l-14.5-6.8v-7.7l-21.8-10.3l-7.3,10.3h-14.5l-21.8,4.3l-7.3,36.3v-11.5
				v-14.5l-14.5-6.8v-7.7l-21.8-10.3v10.3H83H68.5H54H41.2l-9,91.3L54,240.4h14.5v-14.5v-14.5v-14.5H83h14.5H112v-14.5h13.9
				l-6.7,33.3l21.8,10.3l-7.3,4.3l21.8,10.3H170h14.5H199V225.9z M90.2,172.1v10.3H83H68.5v-14.5v-14.5H83h12.4l1.2,2.4L90.2,172.1z
				 M177.2,215.6v10.3H170h-14.5v-14.5v-14.5v-14.5v-14.5v-14.5H170h14.5L177.2,215.6z"/>
			<path d="M271.5,269.4l-21.8-10.3v10.3h-7.3H228h-14.5v2.8l-14.5-2.8v40.5l-7.3,50.8l21.8,10.3H228v-14.5v-14.5v-14.5h14.5H257
				h14.5v-14.5H286v-14.5v-14.5l-14.5-6.8V269.4z M249.7,302.6l-21.8,3.1v-7.4v-14.5h14.5H257h3l4.3,4.3L249.7,302.6z"/>
		</g>
		<g>
			<polygon class="st1" points="249.7,288.1 249.7,302.6 264.2,302.6 264.2,288.1 264.2,273.6 249.7,273.6 			"/>
			<polygon class="st2" points="162.7,143.1 177.2,143.1 177.2,128.6 162.7,128.6 148.2,128.6 133.7,128.6 133.7,143.1 148.2,143.1
							"/>
			<polygon class="st2" points="191.7,201.1 191.7,186.6 191.7,172.1 191.7,157.6 191.7,143.1 177.2,143.1 177.2,157.6 177.2,172.1
				177.2,186.6 177.2,201.1 177.2,215.6 191.7,215.6 			"/>
			<polygon class="st2" points="148.2,215.6 133.7,215.6 133.7,230.1 148.2,230.1 162.7,230.1 177.2,230.1 177.2,215.6 162.7,215.6
							"/>
			<polygon class="st2" points="133.7,186.6 133.7,172.1 133.7,157.6 133.7,143.1 119.2,143.1 119.2,157.6 119.2,172.1 119.2,186.6
				119.2,201.1 119.2,215.6 133.7,215.6 133.7,201.1 			"/>
			<polygon class="st1" points="148.2,273.6 148.2,288.1 148.2,302.6 148.2,317.1 148.2,331.6 148.2,346.1 162.7,346.1 162.7,331.6
				162.7,317.1 162.7,302.6 162.7,288.1 162.7,273.6 162.7,259.1 148.2,259.1 			"/>
			<polygon class="st1" points="119.2,346.1 104.7,346.1 104.7,360.6 119.2,360.6 133.7,360.6 148.2,360.6 148.2,346.1 133.7,346.1
							"/>
			<polygon class="st1" points="104.7,317.1 104.7,302.6 104.7,288.1 104.7,273.6 104.7,259.1 90.2,259.1 90.2,273.6 90.2,288.1
				90.2,302.6 90.2,317.1 90.2,331.6 90.2,346.1 104.7,346.1 104.7,331.6 			"/>
			<polygon class="st1" points="220.7,302.6 206.2,302.6 206.2,288.1 206.2,273.6 220.7,273.6 235.2,273.6 249.7,273.6 249.7,259.1
				235.2,259.1 220.7,259.1 206.2,259.1 191.7,259.1 191.7,273.6 191.7,288.1 191.7,302.6 191.7,317.1 191.7,331.6 191.7,346.1
				191.7,360.6 206.2,360.6 206.2,346.1 206.2,331.6 206.2,317.1 220.7,317.1 235.2,317.1 249.7,317.1 249.7,302.6 235.2,302.6
				"/>
			<polygon class="st2" points="90.2,172.1 104.7,172.1 104.7,157.6 104.7,143.1 90.2,143.1 90.2,157.6 			"/>
			<polygon class="st2" points="90.2,172.1 75.7,172.1 61.2,172.1 46.7,172.1 46.7,157.6 46.7,143.1 61.2,143.1 75.7,143.1
				90.2,143.1 90.2,128.6 75.7,128.6 61.2,128.6 46.7,128.6 32.2,128.6 32.2,143.1 32.2,157.6 32.2,172.1 32.2,186.6 32.2,201.1
				32.2,215.6 32.2,230.1 46.7,230.1 46.7,215.6 46.7,201.1 46.7,186.6 61.2,186.6 75.7,186.6 90.2,186.6 			"/>
			<polygon class="st2" points="235.2,186.6 235.2,172.1 235.2,157.6 235.2,143.1 235.2,128.6 220.7,128.6 220.7,143.1 220.7,157.6
				220.7,172.1 220.7,186.6 220.7,201.1 220.7,215.6 220.7,230.1 235.2,230.1 235.2,215.6 249.7,215.6 249.7,201.1 235.2,201.1
				"/>
			<polygon class="st2" points="264.2,172.1 249.7,172.1 249.7,186.6 249.7,201.1 264.2,201.1 264.2,186.6 			"/>
			<polygon class="st2" points="278.7,143.1 278.7,157.6 278.7,172.1 278.7,186.6 278.7,201.1 264.2,201.1 264.2,215.6 278.7,215.6
				278.7,230.1 293.2,230.1 293.2,215.6 293.2,201.1 293.2,186.6 293.2,172.1 293.2,157.6 293.2,143.1 293.2,128.6 278.7,128.6
				"/>
			<polygon class="st2" points="365.7,128.6 351.2,128.6 336.7,128.6 322.2,128.6 322.2,143.1 322.2,157.6 322.2,172.1 322.2,186.6
				322.2,201.1 322.2,215.6 322.2,230.1 336.7,230.1 351.2,230.1 365.7,230.1 380.2,230.1 394.7,230.1 394.7,215.6 380.2,215.6
				365.7,215.6 351.2,215.6 336.7,215.6 336.7,201.1 336.7,186.6 351.2,186.6 365.7,186.6 380.2,186.6 380.2,172.1 365.7,172.1
				351.2,172.1 336.7,172.1 336.7,157.6 336.7,143.1 351.2,143.1 365.7,143.1 380.2,143.1 394.7,143.1 394.7,128.6 380.2,128.6
				"/>
			<polygon class="st2" points="481.7,143.1 481.7,157.6 481.7,172.1 496.2,172.1 496.2,157.6 496.2,143.1 			"/>
			<polygon class="st2" points="452.7,172.1 438.2,172.1 438.2,157.6 438.2,143.1 452.7,143.1 467.2,143.1 481.7,143.1 481.7,128.6
				467.2,128.6 452.7,128.6 438.2,128.6 423.7,128.6 423.7,143.1 423.7,157.6 423.7,172.1 423.7,186.6 423.7,201.1 423.7,215.6
				423.7,230.1 438.2,230.1 438.2,215.6 438.2,201.1 438.2,186.6 452.7,186.6 452.7,201.1 467.2,201.1 467.2,186.6 481.7,186.6
				481.7,172.1 467.2,172.1 			"/>
			<rect x="467.2" y="201.1" class="st2" width="14.5" height="14.5"/>
			<rect x="481.7" y="215.6" class="st2" width="14.5" height="14.5"/>
		</g>
		<g>
			<polygon class="st0" points="384,383.9 365.4,375.1 365.4,383.9 326.5,383.9 299.1,371 299.1,364.9 287.6,359.5 287.6,315.2
				299.1,315.2 299.1,306.6 287.6,306.6 287.6,257.6 299.1,257.6 299.1,246.1 395.6,246.1 423,259 423,265.1 434.5,270.5
				434.5,372.3 423,372.3 423,383.9 			"/>
		</g>
		<polygon class="st3" points="392.7,270.6 392.7,259.1 381.2,259.1 369.7,259.1 358.2,259.1 346.7,259.1 335.1,259.1 323.6,259.1
			312.1,259.1 312.1,270.6 300.6,270.6 300.6,282.1 300.6,293.6 312.1,293.6 312.1,305.2 323.6,305.2 323.6,316.7 312.1,316.7
			312.1,328.2 300.6,328.2 300.6,339.7 300.6,351.2 312.1,351.2 312.1,362.7 323.6,362.7 335.1,362.7 335.1,351.2 346.7,351.2
			346.7,339.7 358.2,339.7 358.2,351.2 369.7,351.2 369.7,362.7 381.2,362.7 392.7,362.7 392.7,351.2 404.2,351.2 404.2,339.7
			404.2,328.2 404.2,316.7 404.2,305.2 404.2,293.6 404.2,282.1 404.2,270.6 		"/>
		<path class="st3" d="M410,273.3v-6.1l-17.3-8.1l-8.1,8.1h-9.1h-11.5h-11.5h-11.5h-11.5v11.5h-11.5v11.5v11.5h11.5v11.5h9.1
			l-37.9,37.9l17.3,8.1l-5.8,3.4l17.3,8.1h11.5h11.5v-11.5h11.5v-5.4l11.5,5.4l-5.8,3.4l17.3,8.1h11.5H410v-11.5h11.5v-11.5v-11.5
			v-11.5v-11.5v-11.5v-11.5v-11.5L410,273.3z M363.9,350.1v-2.2h11.5L363.9,350.1z"/>
		<g>
			<rect x="312.1" y="270.6" class="st4" width="11.5" height="11.5"/>
			<rect x="323.6" y="270.6" class="st4" width="11.5" height="11.5"/>
			<rect x="335.1" y="270.6" class="st4" width="11.5" height="11.5"/>
			<rect x="346.7" y="270.6" class="st4" width="11.5" height="11.5"/>
			<rect x="358.2" y="270.6" class="st4" width="11.5" height="11.5"/>
			<rect x="369.7" y="270.6" class="st4" width="11.5" height="11.5"/>
			<rect x="381.2" y="270.6" class="st5" width="11.5" height="11.5"/>
			<rect x="312.1" y="282.1" class="st6" width="11.5" height="11.5"/>
			<rect x="300.6" y="270.6" class="st3" width="11.5" height="11.5"/>
			<rect x="300.6" y="282.1" class="st3" width="11.5" height="11.5"/>
			<rect x="312.1" y="259.1" class="st3" width="11.5" height="11.5"/>
			<rect x="323.6" y="259.1" class="st3" width="11.5" height="11.5"/>
			<rect x="335.1" y="259.1" class="st3" width="11.5" height="11.5"/>
			<rect x="346.7" y="259.1" class="st3" width="11.5" height="11.5"/>
			<rect x="358.2" y="259.1" class="st3" width="11.5" height="11.5"/>
			<rect x="369.7" y="259.1" class="st3" width="11.5" height="11.5"/>
			<rect x="381.2" y="259.1" class="st3" width="11.5" height="11.5"/>
			<rect x="392.7" y="270.6" class="st3" width="11.5" height="11.5"/>
			<rect x="392.7" y="282.1" class="st3" width="11.5" height="11.5"/>
			<rect x="392.7" y="293.6" class="st3" width="11.5" height="11.5"/>
			<rect x="392.7" y="305.2" class="st3" width="11.5" height="11.5"/>
			<rect x="392.7" y="316.7" class="st3" width="11.5" height="11.5"/>
			<rect x="392.7" y="328.2" class="st3" width="11.5" height="11.5"/>
			<rect x="392.7" y="339.7" class="st3" width="11.5" height="11.5"/>
			<rect x="381.2" y="351.2" class="st3" width="11.5" height="11.5"/>
			<rect x="369.7" y="351.2" class="st3" width="11.5" height="11.5"/>
			<rect x="358.2" y="339.7" class="st3" width="11.5" height="11.5"/>
			<rect x="358.2" y="328.2" class="st3" width="11.5" height="11.5"/>
			<rect x="358.2" y="316.7" class="st3" width="11.5" height="11.5"/>
			<rect x="346.7" y="328.2" class="st3" width="11.5" height="11.5"/>
			<rect x="335.1" y="339.7" class="st3" width="11.5" height="11.5"/>
			<rect x="323.6" y="351.2" class="st3" width="11.5" height="11.5"/>
			<rect x="312.1" y="351.2" class="st3" width="11.5" height="11.5"/>
			<rect x="300.6" y="339.7" class="st3" width="11.5" height="11.5"/>
			<rect x="300.6" y="328.2" class="st3" width="11.5" height="11.5"/>
			<rect x="312.1" y="316.7" class="st3" width="11.5" height="11.5"/>
			<rect x="323.6" y="305.2" class="st3" width="11.5" height="11.5"/>
			<rect x="335.1" y="293.6" class="st3" width="11.5" height="11.5"/>
			<rect x="323.6" y="293.6" class="st3" width="11.5" height="11.5"/>
			<rect x="312.1" y="293.6" class="st3" width="11.5" height="11.5"/>
			<rect x="323.6" y="282.1" class="st6" width="11.5" height="11.5"/>
			<rect x="335.1" y="282.1" class="st6" width="11.5" height="11.5"/>
			<rect x="346.7" y="282.1" class="st6" width="11.5" height="11.5"/>
			<rect x="358.2" y="282.1" class="st6" width="11.5" height="11.5"/>
			<rect x="369.7" y="282.1" class="st6" width="11.5" height="11.5"/>
			<rect x="381.2" y="282.1" class="st6" width="11.5" height="11.5"/>
			<rect x="346.7" y="293.6" class="st6" width="11.5" height="11.5"/>
			<rect x="358.2" y="293.6" class="st6" width="11.5" height="11.5"/>
			<rect x="369.7" y="293.6" class="st6" width="11.5" height="11.5"/>
			<rect x="381.2" y="293.6" class="st6" width="11.5" height="11.5"/>
			<rect x="346.7" y="305.2" class="st6" width="11.5" height="11.5"/>
			<rect x="335.1" y="305.2" class="st6" width="11.5" height="11.5"/>
			<rect x="335.1" y="316.7" class="st6" width="11.5" height="11.5"/>
			<rect x="323.6" y="316.7" class="st6" width="11.5" height="11.5"/>
			<rect x="323.6" y="328.2" class="st6" width="11.5" height="11.5"/>
			<rect x="346.7" y="316.7" class="st7" width="11.5" height="11.5"/>
			<rect x="335.1" y="328.2" class="st7" width="11.5" height="11.5"/>
			<rect x="323.6" y="339.7" class="st7" width="11.5" height="11.5"/>
			<rect x="312.1" y="328.2" class="st6" width="11.5" height="11.5"/>
			<rect x="312.1" y="339.7" class="st6" width="11.5" height="11.5"/>
			<rect x="358.2" y="305.2" class="st6" width="11.5" height="11.5"/>
			<rect x="369.7" y="305.2" class="st6" width="11.5" height="11.5"/>
			<rect x="381.2" y="305.2" class="st6" width="11.5" height="11.5"/>
			<rect x="369.7" y="316.7" class="st6" width="11.5" height="11.5"/>
			<rect x="381.2" y="316.7" class="st6" width="11.5" height="11.5"/>
			<rect x="369.7" y="328.2" class="st6" width="11.5" height="11.5"/>
			<rect x="381.2" y="328.2" class="st6" width="11.5" height="11.5"/>
			<rect x="369.7" y="339.7" class="st8" width="11.5" height="11.5"/>
			<rect x="381.2" y="339.7" class="st8" width="11.5" height="11.5"/>
		</g>
	</g>
	<g>
		<path class="st9" d="M17.7,490.5v-53.2H0v-8.9h53.2v8.9H35.5v53.2H17.7z"/>
		<path class="st9" d="M62.1,490.5v-62.1h17.7V455h26.6v-26.6h17.7v62.1h-17.7v-26.6H79.9v26.6H62.1z"/>
		<path class="st9" d="M133.1,490.5v-62.1h62.1v8.9h-44.4V455h35.5v8.9h-35.5v17.7h44.4v8.9H133.1z"/>
		<path class="st9" d="M292.8,490.5v-8.9H284v-8.9h-8.9v-26.6h8.9v-8.9h8.9v-8.9h44.4v8.9h-35.5v8.9h-8.9v26.6h8.9v8.9h17.7v-17.7
			h-8.9V455h26.6v35.5H292.8z"/>
		<path class="st9" d="M346.1,490.5v-44.4h8.9v-8.9h8.9v-8.9h26.6v8.9h8.9v8.9h8.9v44.4h-17.7v-17.7h-26.6v17.7H346.1z M363.8,463.9
			h26.6v-17.7h-8.9v-8.9h-8.9v8.9h-8.9V463.9z"/>
		<path class="st9" d="M417.1,490.5v-62.1h17.7v8.9h8.9v8.9h8.9v-8.9h8.9v-8.9h17.7v62.1h-17.7V455h-8.9v17.7h-8.9V455h-8.9v35.5
			H417.1z"/>
		<path class="st9" d="M488.1,490.5v-62.1h62.1v8.9h-44.4V455h35.5v8.9h-35.5v17.7h44.4v8.9H488.1z"/>
	</g>
	<g>
		<polygon class="st0" points="113.7,1.8 176.7,1.8 170.8,26 140.6,26 137.6,38.8 169.1,38.8 163.6,61.2 132.5,61.2 125.1,93.1
			92.6,93.1 113.7,1.8 		"/>
		<polygon class="st0" points="185.3,1.8 217.8,1.8 196.6,93.1 164.1,93.1 185.3,1.8 		"/>
		<path class="st0" d="M250.3,45.3c10.4,0,17.8-6.2,17.8-14.9c0-4.7-3.4-7-10.1-7c-1.9,0-3,0.1-5.1,0.5l-4.9,21.1
			C249,45.2,249.1,45.3,250.3,45.3L250.3,45.3z M226.3,2.3l2.1-0.3C238.8,0.8,251.8,0,259,0c11.9,0,21.2,1.4,28.2,4.2
			c9,3.7,14.3,11.8,14.3,21.5c0,8.4-2.8,16.3-8.2,22.5c-4.6,5.3-8.8,7.9-17.5,10.5l-2.1,0.7c0.9,0.7,1.2,1,1.6,1.4
			c2.5,2.9,10.1,17.7,16.6,32.3h-35.8c-4.6-13-6-16.4-12.1-31.2l-7.2,31.2h-31.6L226.3,2.3L226.3,2.3z"/>
		<polygon class="st0" points="378.7,1.8 457.6,1.8 452.1,28.2 428.7,28.2 413.2,93.1 380.7,93.1 396.2,28.2 370.8,28.2 378.7,1.8
					"/>
		<path class="st0" d="M428.2,84.5c0.7,0,1.1-0.3,1.1-1c0-0.6-0.4-1-1.1-1c-0.2,0-0.2,0-0.3,0v1.9C428,84.5,428.1,84.5,428.2,84.5
			L428.2,84.5z M425.3,80.7c0.4,0,0.5-0.1,1.3-0.1c0.8-0.1,1.1-0.1,1.5-0.1c2.6,0,3.9,1,3.9,2.9c0,1.2-0.5,1.9-1.5,2.3l-0.1,0
			c0.1,0.1,0.1,0.1,0.2,0.2c0.3,0.2,1.2,1.6,2,2.9h-3c-0.6-1.1-0.8-1.4-1.6-2.7v2.7h-2.5V80.7L425.3,80.7z M428.4,91.7
			c3.9,0,7-3.1,7-6.9c0-3.9-3.1-7-7-7c-3.8,0-6.9,3.1-6.9,6.9C421.5,88.6,424.5,91.7,428.4,91.7L428.4,91.7z M428.4,76.8
			c4.4,0,7.9,3.5,7.9,7.9c0,4.4-3.5,7.9-7.9,7.9c-4.4,0-7.9-3.5-7.9-7.9C420.5,80.3,424,76.8,428.4,76.8L428.4,76.8z"/>
		<path class="st0" d="M295.2,90.8c9.1,2.7,19.1,4.2,28.5,4.2c12.7,0,22.4-2.9,30.7-8.9c9.3-6.6,15.2-16.7,15.2-25.9
			c0-6.2-2.7-11.8-7.5-15.8c-3.7-3-7.6-5.3-15.5-9l-6.4-3c-2.1-1.1-3.1-2.2-3.1-3.4c0-3.3,4.2-5.8,9.8-5.8c4.2,0,9.3,1.2,19,4.4
			l6.7-24.7C365.3,1,358.3,0,351.2,0c-26.6,0-47,14.5-47,33.3c0,9.9,6.6,16.8,23,24.5c7.8,3.6,9.1,4.5,9.1,7c0,3.7-4,6-10.6,6
			c-5.8,0-13.3-1.8-23.4-5.5l0,0L295.2,90.8L295.2,90.8z"/>
	</g>
</g>
</svg>
