<!-- Generator: Adobe Illustrator 21.0.2, SVG Export Plug-In  -->
<svg version="1.1"
	 xmlns="http://www.w3.org/2000/svg" xmlns:xlink="http://www.w3.org/1999/xlink" xmlns:a="http://ns.adobe.com/AdobeSVGViewerExtensions/3.0/"
	 x="0px" y="0px" width="125px" height="60px" viewBox="0 0 125 60" style="enable-background:new 0 0 125 60;"
	 xml:space="preserve">
<style type="text/css">
	.st0{fill:#D7DEE2;}
	.st1{fill:#168ACB;}
	.st2{fill:#0D4B80;}
	.st3{fill:#B2B9BE;}
</style>
<defs>
</defs>
<g>
	<g>
		<g>
			<g>
				<polygon class="st0" points="52.5,50 50,50 47.5,50 45,50 42.5,50 40,50 37.5,50 35,50 32.5,50 30,50 27.5,50 25,50 22.5,50
					22.5,52.5 25,52.5 27.5,52.5 30,52.5 30,55 30,57.5 32.5,57.5 35,57.5 37.5,57.5 37.5,55 37.5,52.5 40,52.5 42.5,52.5 42.5,55
					42.5,57.5 42.5,60 45,60 47.5,60 50,60 50,57.5 50,55 50,52.5 52.5,52.5 55,52.5 57.5,52.5 57.5,50 55,50 				"/>
			</g>
			<g>
				<polygon class="st0" points="100,50 97.5,50 95,50 92.5,50 90,50 87.5,50 85,50 82.5,50 80,50 77.5,50 75,50 72.5,50 70,50
					67.5,50 67.5,52.5 70,52.5 72.5,52.5 75,52.5 75,55 75,57.5 75,60 77.5,60 80,60 82.5,60 82.5,57.5 82.5,55 82.5,52.5 85,52.5
					87.5,52.5 87.5,55 87.5,57.5 90,57.5 92.5,57.5 95,57.5 95,55 95,52.5 97.5,52.5 100,52.5 102.5,52.5 102.5,50 				"/>
			</g>
		</g>
	</g>
	<g>
		<polygon class="st1" points="30,45 27.5,45 25,45 22.5,45 20,45 17.5,45 17.5,47.5 20,47.5 22.5,47.5 25,47.5 27.5,47.5 30,47.5
			32.5,47.5 35,47.5 35,45 32.5,45 		"/>
		<polygon class="st1" points="30,40 27.5,40 25,40 22.5,40 20,40 17.5,40 15,40 12.5,40 12.5,42.5 15,42.5 17.5,42.5 20,42.5
			22.5,42.5 25,42.5 27.5,42.5 30,42.5 32.5,42.5 35,42.5 35,40 32.5,40 		"/>
		<polygon class="st1" points="30,35 27.5,35 25,35 22.5,35 20,35 17.5,35 15,35 12.5,35 10,35 7.5,35 7.5,37.5 10,37.5 12.5,37.5
			15,37.5 17.5,37.5 20,37.5 22.5,37.5 25,37.5 27.5,37.5 30,37.5 32.5,37.5 35,37.5 35,35 32.5,35 		"/>
		<polygon class="st1" points="115,35 112.5,35 110,35 107.5,35 105,35 102.5,35 100,35 97.5,35 95,35 92.5,35 90,35 90,37.5
			92.5,37.5 95,37.5 97.5,37.5 100,37.5 102.5,37.5 105,37.5 107.5,37.5 110,37.5 112.5,37.5 115,37.5 117.5,37.5 117.5,35 		"/>
		<polygon class="st1" points="107.5,40 105,40 102.5,40 100,40 97.5,40 95,40 92.5,40 90,40 90,42.5 92.5,42.5 95,42.5 97.5,42.5
			100,42.5 102.5,42.5 105,42.5 107.5,42.5 110,42.5 112.5,42.5 112.5,40 110,40 		"/>
		<polygon class="st1" points="102.5,45 100,45 97.5,45 95,45 92.5,45 90,45 90,47.5 92.5,47.5 95,47.5 97.5,47.5 100,47.5
			102.5,47.5 105,47.5 107.5,47.5 107.5,45 105,45 		"/>
	</g>
	<g>
		<polygon class="st2" points="12.5,22.5 15,22.5 15,20 15,17.5 12.5,17.5 10,17.5 7.5,17.5 7.5,20 7.5,22.5 10,22.5 		"/>
		<polygon class="st2" points="30,17.5 32.5,17.5 32.5,15 32.5,12.5 30,12.5 27.5,12.5 25,12.5 25,15 25,17.5 27.5,17.5 		"/>
		<polygon class="st2" points="115,22.5 117.5,22.5 117.5,20 117.5,17.5 115,17.5 112.5,17.5 110,17.5 110,20 110,22.5 112.5,22.5
					"/>
		<polygon class="st2" points="97.5,17.5 100,17.5 100,15 100,12.5 97.5,12.5 95,12.5 92.5,12.5 92.5,15 92.5,17.5 95,17.5 		"/>
		<polygon class="st2" points="30,42.5 27.5,42.5 25,42.5 22.5,42.5 20,42.5 17.5,42.5 15,42.5 15,45 17.5,45 20,45 22.5,45 25,45
			27.5,45 30,45 32.5,45 35,45 35,42.5 32.5,42.5 		"/>
		<polygon class="st2" points="30,37.5 27.5,37.5 25,37.5 22.5,37.5 20,37.5 17.5,37.5 15,37.5 12.5,37.5 10,37.5 10,40 12.5,40
			15,40 17.5,40 20,40 22.5,40 25,40 27.5,40 30,40 32.5,40 35,40 35,37.5 32.5,37.5 		"/>
		<polygon class="st2" points="30,32.5 27.5,32.5 25,32.5 22.5,32.5 20,32.5 17.5,32.5 15,32.5 12.5,32.5 10,32.5 7.5,32.5 5,32.5
			5,35 7.5,35 10,35 12.5,35 15,35 17.5,35 20,35 22.5,35 25,35 27.5,35 30,35 32.5,35 35,35 35,32.5 32.5,32.5 		"/>
		<polygon class="st2" points="117.5,32.5 115,32.5 112.5,32.5 110,32.5 107.5,32.5 105,32.5 102.5,32.5 100,32.5 97.5,32.5
			95,32.5 92.5,32.5 90,32.5 90,35 92.5,35 95,35 97.5,35 100,35 102.5,35 105,35 107.5,35 110,35 112.5,35 115,35 117.5,35 120,35
			120,32.5 		"/>
		<polygon class="st2" points="110,37.5 107.5,37.5 105,37.5 102.5,37.5 100,37.5 97.5,37.5 95,37.5 92.5,37.5 90,37.5 90,40
			92.5,40 95,40 97.5,40 100,40 102.5,40 105,40 107.5,40 110,40 112.5,40 115,40 115,37.5 112.5,37.5 		"/>
		<polygon class="st2" points="105,42.5 102.5,42.5 100,42.5 97.5,42.5 95,42.5 92.5,42.5 90,42.5 90,45 92.5,45 95,45 97.5,45
			100,45 102.5,45 105,45 107.5,45 110,45 110,42.5 107.5,42.5 		"/>
	</g>
	<g>
		<polygon class="st0" points="30,30 27.5,30 25,30 22.5,30 20,30 17.5,30 15,30 12.5,30 10,30 7.5,30 5,30 2.5,30 2.5,32.5 5,32.5
			7.5,32.5 10,32.5 12.5,32.5 15,32.5 17.5,32.5 20,32.5 22.5,32.5 25,32.5 27.5,32.5 30,32.5 32.5,32.5 35,32.5 35,30 32.5,30
			"/>
		<polygon class="st0" points="40,30 37.5,30 37.5,32.5 37.5,35 40,35 42.5,35 42.5,37.5 42.5,40 42.5,42.5 42.5,45 45,45 45,42.5
			45,40 45,37.5 45,35 45,32.5 45,30 42.5,30 		"/>
		<polygon class="st0" points="77.5,25 80,25 80,22.5 80,20 80,17.5 77.5,17.5 75,17.5 72.5,17.5 72.5,15 72.5,12.5 72.5,10 70,10
			67.5,10 65,10 65,7.5 65,5 65,2.5 65,0 62.5,0 62.5,2.5 62.5,5 62.5,7.5 62.5,10 62.5,12.5 60,12.5 57.5,12.5 55,12.5 55,15
			55,17.5 55,20 52.5,20 50,20 47.5,20 47.5,22.5 47.5,25 50,25 52.5,25 55,25 57.5,25 60,25 62.5,25 65,25 67.5,25 70,25 72.5,25
			75,25 		"/>
		<polygon class="st0" points="55,30 52.5,30 50,30 50,32.5 50,35 52.5,35 52.5,32.5 55,32.5 55,35 55,37.5 55,40 55,42.5 55,45
			57.5,45 57.5,42.5 57.5,40 57.5,37.5 57.5,35 60,35 60,32.5 60,30 57.5,30 		"/>
		<polygon class="st0" points="65,30 62.5,30 62.5,32.5 62.5,35 65,35 67.5,35 67.5,37.5 67.5,40 67.5,42.5 67.5,45 70,45 70,42.5
			70,40 70,37.5 70,35 70,32.5 70,30 67.5,30 		"/>
		<polygon class="st0" points="82.5,30 82.5,32.5 82.5,35 82.5,37.5 82.5,40 82.5,42.5 80,42.5 77.5,42.5 77.5,40 77.5,37.5
			77.5,35 77.5,32.5 77.5,30 75,30 75,32.5 75,35 75,37.5 75,40 75,42.5 75,45 77.5,45 80,45 82.5,45 85,45 87.5,45 87.5,42.5
			87.5,40 87.5,37.5 87.5,35 87.5,32.5 87.5,30 85,30 		"/>
		<polygon class="st0" points="120,30 117.5,30 115,30 112.5,30 110,30 107.5,30 105,30 102.5,30 100,30 97.5,30 95,30 92.5,30
			90,30 90,32.5 92.5,32.5 95,32.5 97.5,32.5 100,32.5 102.5,32.5 105,32.5 107.5,32.5 110,32.5 112.5,32.5 115,32.5 117.5,32.5
			120,32.5 122.5,32.5 122.5,30 		"/>
	</g>
	<g>
		<polygon class="st3" points="55,47.5 52.5,47.5 50,47.5 47.5,47.5 45,47.5 42.5,47.5 40,47.5 37.5,47.5 35,47.5 32.5,47.5
			30,47.5 27.5,47.5 25,47.5 22.5,47.5 20,47.5 20,50 22.5,50 25,50 27.5,50 30,50 32.5,50 35,50 37.5,50 40,50 42.5,50 45,50
			47.5,50 50,50 52.5,50 55,50 57.5,50 60,50 60,47.5 57.5,47.5 		"/>
		<polygon class="st3" points="22.5,30 25,30 27.5,30 30,30 32.5,30 35,30 35,27.5 32.5,27.5 32.5,25 32.5,22.5 32.5,20 32.5,17.5
			30,17.5 27.5,17.5 25,17.5 25,20 25,22.5 25,25 25,27.5 22.5,27.5 20,27.5 17.5,27.5 15,27.5 15,25 15,22.5 12.5,22.5 10,22.5
			7.5,22.5 7.5,25 7.5,27.5 5,27.5 2.5,27.5 0,27.5 0,30 2.5,30 5,30 7.5,30 10,30 12.5,30 15,30 17.5,30 20,30 		"/>
		<polygon class="st3" points="45,30 45,27.5 42.5,27.5 40,27.5 40,30 42.5,30 		"/>
		<polygon class="st3" points="60,2.5 60,5 60,7.5 60,10 57.5,10 55,10 52.5,10 52.5,12.5 52.5,15 52.5,17.5 50,17.5 47.5,17.5
			45,17.5 45,20 45,22.5 45,25 47.5,25 47.5,22.5 47.5,20 50,20 52.5,20 55,20 55,17.5 55,15 55,12.5 57.5,12.5 60,12.5 62.5,12.5
			62.5,10 62.5,7.5 62.5,5 62.5,2.5 62.5,0 60,0 		"/>
		<polygon class="st3" points="55,27.5 52.5,27.5 50,27.5 47.5,27.5 47.5,30 47.5,32.5 47.5,35 50,35 50,32.5 50,30 52.5,30 55,30
			57.5,30 60,30 60,27.5 57.5,27.5 		"/>
		<polygon class="st3" points="55,42.5 55,40 55,37.5 52.5,37.5 52.5,40 52.5,42.5 52.5,45 55,45 		"/>
		<polygon class="st3" points="42.5,42.5 42.5,40 42.5,37.5 42.5,35 40,35 40,37.5 40,40 40,42.5 40,45 42.5,45 		"/>
		<polygon class="st3" points="70,30 70,27.5 67.5,27.5 65,27.5 65,30 67.5,30 		"/>
		<polygon class="st3" points="67.5,42.5 67.5,40 67.5,37.5 67.5,35 65,35 65,37.5 65,40 65,42.5 65,45 67.5,45 		"/>
		<polygon class="st3" points="75,42.5 75,40 75,37.5 75,35 75,32.5 75,30 77.5,30 80,30 82.5,30 85,30 87.5,30 87.5,27.5 85,27.5
			82.5,27.5 80,27.5 77.5,27.5 75,27.5 72.5,27.5 72.5,30 72.5,32.5 72.5,35 72.5,37.5 72.5,40 72.5,42.5 72.5,45 75,45 		"/>
		<polygon class="st3" points="122.5,27.5 120,27.5 117.5,27.5 117.5,25 117.5,22.5 115,22.5 112.5,22.5 110,22.5 110,25 110,27.5
			107.5,27.5 105,27.5 102.5,27.5 100,27.5 100,25 100,22.5 100,20 100,17.5 97.5,17.5 95,17.5 92.5,17.5 92.5,20 92.5,22.5
			92.5,25 92.5,27.5 90,27.5 90,30 92.5,30 95,30 97.5,30 100,30 102.5,30 105,30 107.5,30 110,30 112.5,30 115,30 117.5,30 120,30
			122.5,30 125,30 125,27.5 		"/>
		<polygon class="st3" points="100,47.5 97.5,47.5 95,47.5 92.5,47.5 90,47.5 87.5,47.5 85,47.5 82.5,47.5 80,47.5 77.5,47.5
			75,47.5 72.5,47.5 70,47.5 67.5,47.5 65,47.5 65,50 67.5,50 70,50 72.5,50 75,50 77.5,50 80,50 82.5,50 85,50 87.5,50 90,50
			92.5,50 95,50 97.5,50 100,50 102.5,50 105,50 105,47.5 102.5,47.5 		"/>
	</g>
</g>
</svg>
